<?xml version="1.0" encoding="utf-8"?>
<!-- Generator: Adobe Illustrator 21.1.0, SVG Export Plug-In . SVG Version: 6.00 Build 0)  -->
<svg version="1.1" id="Layer_1" xmlns="http://www.w3.org/2000/svg" xmlns:xlink="http://www.w3.org/1999/xlink" x="0px" y="0px"
	 viewBox="0 0 512 512" style="enable-background:new 0 0 512 512;" xml:space="preserve">
<style type="text/css">
	.st0{fill:url(#SVGID_1_);}
	.st1{fill:#FFFFFF;}
	.st2{fill:url(#SVGID_2_);}
	.st3{fill:url(#SVGID_3_);}
	.st4{fill:#40C4FF;}
	.st5{fill:#1DE9B6;}
</style>
<g>
	<g>
		<g>
			<linearGradient id="SVGID_1_" gradientUnits="userSpaceOnUse" x1="256" y1="345.5" x2="256" y2="165.9495">
				<stop  offset="0" style="stop-color:#40C4FF"/>
				<stop  offset="1" style="stop-color:#1DE9B6"/>
			</linearGradient>
			<path class="st0" d="M346.6,256c0-50-40.7-90.6-90.6-90.6S165.4,206,165.4,256s40.7,90.6,90.6,90.6S346.6,306,346.6,256z
				 M181.8,256c0-40.9,33.3-74.2,74.2-74.2s74.2,33.3,74.2,74.2s-33.3,74.2-74.2,74.2S181.8,296.9,181.8,256z"/>
			<path class="st1" d="M313.7,256c0-31.8-25.9-57.7-57.7-57.7s-57.7,25.9-57.7,57.7s25.9,57.7,57.7,57.7S313.7,287.8,313.7,256z
				 M214.8,256c0-22.7,18.5-41.2,41.2-41.2s41.2,18.5,41.2,41.2s-18.5,41.2-41.2,41.2S214.8,278.7,214.8,256z"/>
			<linearGradient id="SVGID_2_" gradientUnits="userSpaceOnUse" x1="256" y1="231.6997" x2="256" y2="280.9598">
				<stop  offset="0" style="stop-color:#40C4FF"/>
				<stop  offset="0.3785" style="stop-color:#33D2E3"/>
				<stop  offset="1" style="stop-color:#1DE9B6"/>
			</linearGradient>
			<path class="st2" d="M280.7,256c0-13.6-11.1-24.7-24.7-24.7s-24.7,11.1-24.7,24.7s11.1,24.7,24.7,24.7S280.7,269.6,280.7,256z
				 M247.8,256c0-4.5,3.7-8.2,8.2-8.2c4.5,0,8.2,3.7,8.2,8.2c0,4.5-3.7,8.2-8.2,8.2C251.5,264.2,247.8,260.5,247.8,256z"/>
			<linearGradient id="SVGID_3_" gradientUnits="userSpaceOnUse" x1="3.792218e-05" y1="256" x2="512" y2="256">
				<stop  offset="0" style="stop-color:#40C4FF"/>
				<stop  offset="0.5" style="stop-color:#FFFFFF"/>
				<stop  offset="1" style="stop-color:#1DE9B6"/>
			</linearGradient>
			<path class="st3" d="M196.2,364.1c6.3,3.5,12.9,6.4,19.8,8.7l-0.4,0.3c27.7,35.7,66.3,63.6,105.9,76.5l5.1-15.7
				c-15.2-5-51.2-19.7-84.6-55.3c4.6,0.5,9.2,0.8,13.9,0.8c2.7,0,5.3-0.2,7.9-0.4l-0.3,0.5c39.8,22.5,77.3,30.5,110.5,30.5
				c81.5,0,137.2-48.3,137.9-49l-10.9-12.3c-3.9,3.5-92.9,80.1-211,25.8c7-2,13.8-4.7,20.3-7.9l-0.1,0.6c9.8,1.2,19.7,1.9,29.6,1.9
				c35.3,0,70.4-7.8,99.4-22.6l-7.5-14.7c-14.3,7.3-50.2,22.3-99,20.7c5.7-4.6,11-9.6,15.8-15.1l0.2,0.6
				c152.2-42.3,162.5-187.3,162.6-188.7l-16.4-1c-0.1,1.3-8.7,121.9-130.9,167.4c3.5-6.3,6.4-12.9,8.7-19.8l0.3,0.4
				c35.7-27.7,63.6-66.3,76.5-105.9l-15.7-5.1c-5,15.2-19.7,51.2-55.3,84.6c0.5-4.6,0.8-9.2,0.8-14c0-2.7-0.2-5.3-0.4-7.9l0.5,0.3
				C457.5,110.9,362.2,1.1,361.2,0l-12.3,10.9c3.5,3.9,80.1,92.9,25.8,211c-2-7-4.7-13.8-7.9-20.3l0.6,0.1
				c5.7-44.8-1.9-91.8-20.7-129l-14.7,7.5c7.3,14.3,22.3,50.2,20.7,99c-4.6-5.7-9.6-11-15.1-15.8l0.6-0.2
				C295.8,10.9,150.8,0.7,149.4,0.6l-1,16.4c1.3,0.1,121.9,8.7,167.4,130.9c-6.3-3.5-12.9-6.4-19.8-8.7l0.4-0.3
				c-27.7-35.7-66.3-63.6-105.9-76.5L185.4,78c15.2,5,51.2,19.7,84.6,55.3c-4.6-0.5-9.2-0.8-13.9-0.8c-2.7,0-5.3,0.2-7.9,0.4
				l0.3-0.5C110.9,54.6,1.1,149.8,0,150.8l10.9,12.3c3.9-3.5,92.9-80.1,211-25.8c-7,2-13.8,4.7-20.3,7.9l0.1-0.6
				c-44.8-5.7-91.8,1.9-129,20.7l7.5,14.7c14.3-7.3,50.2-22.3,99-20.7c-5.7,4.6-11,9.6-15.8,15.1l-0.2-0.6
				C10.9,216.2,0.7,361.2,0.6,362.6l16.4,1c0.1-1.3,8.7-121.9,130.9-167.4c-3.5,6.3-6.4,12.9-8.7,19.8l-0.3-0.4
				c-35.7,27.7-63.6,66.3-76.5,105.9l15.7,5.1c5-15.2,19.7-51.2,55.3-84.6c-0.5,4.6-0.8,9.2-0.8,13.9c0,2.7,0.2,5.3,0.4,7.9
				l-0.5-0.3C54.5,401.1,149.8,510.9,150.8,512l12.3-10.9c-3.5-3.9-80.1-92.9-25.8-211c2,7,4.7,13.8,7.9,20.3l-0.6-0.1
				c-5.7,44.8,1.9,91.8,20.7,129l14.7-7.5c-7.3-14.3-22.3-50.2-20.7-99c4.6,5.7,9.6,11,15.1,15.8l-0.6,0.2
				c42.3,152.2,187.3,162.5,188.7,162.6l1-16.4C362.3,494.9,241.7,486.3,196.2,364.1z M148.9,259.6c-2-61.9,48.7-112.6,110.6-110.6
				c56.1,1.8,101.7,47.4,103.5,103.5c2,61.9-48.7,112.6-110.6,110.6C196.3,361.2,150.8,315.7,148.9,259.6z"/>
			<rect x="91.2" y="17" class="st1" width="16.5" height="16.5"/>
			<rect x="165.4" y="470.2" class="st1" width="16.5" height="16.5"/>
			<rect x="486.7" y="486.7" class="st1" width="16.5" height="16.5"/>
			<rect x="462" y="58.2" class="st1" width="16.5" height="16.5"/>
			<g>
				<rect x="25.3" y="74.7" class="st4" width="16.5" height="16.5"/>
				<rect x="58.2" y="371.4" class="st4" width="16.5" height="16.5"/>
				<rect x="223" y="495" class="st4" width="16.5" height="16.5"/>
				<rect x="363.1" y="445.5" class="st4" width="16.5" height="16.5"/>
				<rect x="445.5" y="107.7" class="st4" width="16.5" height="16.5"/>
				<rect x="305.4" y="25.3" class="st4" width="16.5" height="16.5"/>
			</g>
			<g>
				<rect x="124.2" y="50" class="st5" width="16.5" height="16.5"/>
				<rect x="25.3" y="198.3" class="st5" width="16.5" height="16.5"/>
				<rect x="25.3" y="404.3" class="st5" width="16.5" height="16.5"/>
				<rect x="412.6" y="429" class="st5" width="16.5" height="16.5"/>
				<rect x="478.5" y="297.2" class="st5" width="16.5" height="16.5"/>
				<rect x="272.5" y="0.6" class="st5" width="16.5" height="16.5"/>
			</g>
		</g>
	</g>
</g>
</svg>
