<?xml version="1.0" encoding="utf-8"?>
<!-- Generator: Adobe Illustrator 21.1.0, SVG Export Plug-In . SVG Version: 6.00 Build 0)  -->
<svg version="1.1" id="Capa_1" xmlns="http://www.w3.org/2000/svg" xmlns:xlink="http://www.w3.org/1999/xlink" x="0px" y="0px"
	 viewBox="0 0 53 53" style="enable-background:new 0 0 53 53;" xml:space="preserve">
<style type="text/css">
	.st0{fill:#FFFFFF;}
	.st1{fill:#40C4FF;}
	.st2{fill:#063448;}
	.st3{fill:#5EC1CC;}
	.st4{fill:#1D7480;}
	.st5{fill:#A7A046;}
	.st6{fill:#1DE9B6;}
</style>
<rect x="27" y="28" class="st0" width="2" height="18"/>
<rect x="27.9" y="12.5" transform="matrix(0.7071 -0.7071 0.7071 0.7071 1.731 31.1776)" class="st0" width="21.2" height="2"/>
<rect x="1.9" y="35" transform="matrix(0.7071 -0.7071 0.7071 0.7071 -20.7692 21.8578)" class="st0" width="28.3" height="2"/>
<rect x="17.5" y="6.7" transform="matrix(0.7071 -0.7071 0.7071 0.7071 -4.8344 17.3284)" class="st0" width="2" height="15.6"/>
<rect x="36.5" y="22.9" transform="matrix(0.7071 -0.7071 0.7071 0.7071 -12.7041 36.3279)" class="st0" width="2" height="21.2"/>
<circle class="st1" cx="48" cy="5" r="5"/>
<circle class="st2" cx="28" cy="48" r="5"/>
<circle class="st3" cx="5" cy="46" r="5"/>
<circle class="st4" cx="12" cy="8" r="3"/>
<circle class="st5" cx="44" cy="40" r="3"/>
<circle class="st6" cx="28" cy="24" r="7"/>
</svg>
