<?xml version="1.0" encoding="iso-8859-1"?>
<!-- Generator: Adobe Illustrator 19.0.0, SVG Export Plug-In . SVG Version: 6.00 Build 0)  -->
<svg version="1.1" id="Capa_1" xmlns="http://www.w3.org/2000/svg" xmlns:xlink="http://www.w3.org/1999/xlink" x="0px" y="0px"
	 viewBox="0 0 512 512" style="enable-background:new 0 0 512 512;" xml:space="preserve">
<circle style="fill:#535B70;" cx="256.004" cy="256" r="255.837"/>
<path style="fill:#51B0E0;" d="M426.582,369.754c-0.24,39.201-13.711,75.258-36.162,103.953c-2.537,1.577-5.106,3.101-7.696,4.584
	c-37.352,21.344-80.604,33.541-126.718,33.541c-12.197,0-24.184-0.856-35.932-2.506c-35.744-5.023-69.107-17.428-98.513-35.64
	C99.11,444.991,85.661,408.944,85.42,369.754c25.072,14.463,54.154-1.076,85.168-1.076c31.129,0,60.304-30.638,85.418-45.205
	c25.114,14.567,54.29,45.205,85.418,45.205C372.438,368.678,401.52,384.216,426.582,369.754z"/>
<path style="fill:#F44E72;" d="M512,221.911c0,63.199-34.365,118.366-85.422,147.839c0-0.352,0-0.717,0-1.069
	c0-63.187-67.385-85.318-118.443-114.805c-0.392-62.638-1.5-150.304-52.127-179.648c25.118-14.567,54.292-22.901,85.422-22.901
	C435.628,51.327,512,127.698,512,221.911z"/>
<path style="fill:#FFCF4B;" d="M256.006,74.228c-50.628,29.344,9.086,139.654,8.694,202.292
	c-51.058,29.473-179.278,28.961-179.278,92.161c0,0.352,0,0.717,0,1.069C34.365,340.276,0,285.11,0,221.911
	C0,127.698,76.371,51.327,170.584,51.327C201.715,51.327,230.888,59.66,256.006,74.228z"/>
<path style="fill:#FCFCFC;" d="M256.006,182.621c31.013,0,60.096,23.757,85.161,38.221c0,0.352,0,0.717,0,1.069
	c0,31.541-3.288,77.082-18.215,102.429c-14.926,25.347-41.489,30.498-66.947,45.254c-26.651-15.448-64.992-33.094-79.988-60.035
	c-13.653-24.529-5.173-57.585-5.173-87.648c0-0.352,0-0.717,0-1.069C195.911,206.378,224.994,182.621,256.006,182.621z"/>
<path style="fill:#42A3CC;" d="M426.578,368.681c0,0.352,0,0.717,0,1.069c-25.053,14.463-54.135,22.744-85.149,22.744
	c-31.131,0-60.304-8.334-85.422-22.901c50.915-29.513,85.161-84.601,85.161-147.683c0-0.352,0-0.717,0-1.069
	C392.225,250.329,426.578,305.495,426.578,368.681z"/>
<path style="fill:#EFAA3A;" d="M170.845,221.911c0,63.082,34.248,118.17,85.161,147.683c-25.118,14.567-54.292,22.901-85.422,22.901
	c-31.013,0-60.096-8.282-85.161-22.744c0-0.352,0-0.717,0-1.069c0-63.199,34.365-118.366,85.422-147.839
	C170.845,221.194,170.845,221.559,170.845,221.911z"/>
<path style="fill:#E22952;" d="M341.168,220.842c-25.066-14.463-54.149-22.744-85.161-22.744s-60.096,8.282-85.161,22.744
	c0.392-62.638,34.534-117.269,85.161-146.613C306.634,103.571,340.776,158.202,341.168,220.842z"/>
<g>
</g>
<g>
</g>
<g>
</g>
<g>
</g>
<g>
</g>
<g>
</g>
<g>
</g>
<g>
</g>
<g>
</g>
<g>
</g>
<g>
</g>
<g>
</g>
<g>
</g>
<g>
</g>
<g>
</g>
</svg>
